<svg width="146" height="42" viewBox="0 0 146 42" fill="none" xmlns="http://www.w3.org/2000/svg">
<g clipPath="url(#clip0_228_3968)">
<ellipse cx="8.39995" cy="21" rx="4.2" ry="1.68" fill="#75CFEA"/>
<ellipse cx="11.9775" cy="11.9505" rx="4.54832" ry="1.81933" transform="rotate(44.6174 11.9775 11.9505)" fill="#CADD5E"/>
<ellipse cx="20.5212" cy="8.83247" rx="4.54832" ry="1.81933" transform="rotate(92.8246 20.5212 8.83247)" fill="#FFCF34"/>
<ellipse cx="29.7027" cy="12.0626" rx="4.54832" ry="1.81933" transform="rotate(135 29.7027 12.0626)" fill="#FBAF45"/>
<ellipse cx="33.996" cy="21.2621" rx="4.54832" ry="1.81933" transform="rotate(178.444 33.996 21.2621)" fill="#EF4C83"/>
<ellipse cx="29.7869" cy="29.6086" rx="4.54832" ry="1.81933" transform="rotate(-137.649 29.7869 29.6086)" fill="#AB4C9D"/>
<ellipse cx="21.4297" cy="34.0564" rx="4.54832" ry="1.81933" transform="rotate(-93.707 21.4297 34.0564)" fill="#5350A2"/>
<ellipse cx="12.1695" cy="29.5799" rx="4.54832" ry="1.81933" transform="rotate(-41.5904 12.1695 29.5799)" fill="#828DC6"/>
<mask id="mask0_228_3968" style="mask-type:luminance" maskUnits="userSpaceOnUse" x="0" y="0" width="43" height="43">
<path d="M14.9285 14.9087C14.7996 14.195 14.5617 13.4664 14.2049 12.7725C13.5556 11.5235 12.4949 10.3885 10.9139 9.67477C10.3687 9.42695 9.76398 9.2287 9.08992 9.08992C9.194 9.59547 9.32782 10.0663 9.49138 10.4975C10.1555 12.262 11.3054 13.4218 12.599 14.1156C13.3474 14.5221 14.1454 14.7748 14.9285 14.9087ZM12.3958 20.9851C11.801 20.5738 11.122 20.2268 10.3786 19.9889C9.03044 19.5627 7.47415 19.5081 5.85343 20.1227C5.29832 20.3309 4.72834 20.6233 4.15341 21C4.58461 21.2875 5.0059 21.5204 5.42719 21.7088C7.14704 22.4869 8.77767 22.4919 10.1902 22.0706C11.008 21.8327 11.7515 21.4461 12.3958 20.9851ZM14.9087 27.0715C14.1949 27.2004 13.4664 27.4333 12.7725 27.7951C11.5235 28.4444 10.3885 29.5051 9.67477 31.0861C9.42695 31.6313 9.2287 32.236 9.08992 32.9101C9.59547 32.806 10.0663 32.6722 10.4975 32.5086C12.262 31.8445 13.4218 30.6946 14.1156 29.401C14.5221 28.6526 14.7748 27.8546 14.9087 27.0715ZM20.9851 29.6042C20.5738 30.199 20.2268 30.878 19.9889 31.6214C19.5627 32.9696 19.5081 34.5258 20.1227 36.1466C20.3309 36.7017 20.6233 37.2717 21 37.8466C21.2875 37.4154 21.5204 36.9941 21.7088 36.5728C22.4869 34.853 22.4919 33.2223 22.0706 31.8098C21.8327 30.992 21.4461 30.2485 20.9851 29.6042ZM27.0715 27.0913C27.2004 27.8051 27.4333 28.5336 27.7951 29.2275C28.4444 30.4765 29.5051 31.6115 31.0861 32.3252C31.6313 32.5731 32.236 32.7713 32.9101 32.9101C32.806 32.4045 32.6722 31.9337 32.5086 31.5025C31.8445 29.738 30.6946 28.5782 29.401 27.8844C28.6526 27.4779 27.8546 27.2252 27.0715 27.0913ZM29.6042 21.0149C30.199 21.4262 30.878 21.7732 31.6214 22.0111C32.9696 22.4373 34.5258 22.4919 36.1466 21.8773C36.7017 21.6691 37.2716 21.3767 37.8466 21C37.4154 20.7125 36.9941 20.4796 36.5728 20.2912C34.853 19.5131 33.2223 19.5081 31.8098 19.9294C30.992 20.1723 30.2485 20.5539 29.6042 21.0149ZM27.0913 14.9285C27.805 14.7996 28.5336 14.5667 29.2275 14.2049C30.4765 13.5556 31.6115 12.4949 32.3252 10.9139C32.573 10.3687 32.7713 9.76398 32.9101 9.08992C32.4045 9.19401 31.9337 9.32783 31.5025 9.49139C29.738 10.1555 28.5782 11.3054 27.8843 12.599C27.4779 13.3474 27.2252 14.1454 27.0913 14.9285ZM22.5018 17.0696C22.016 16.8515 21.5155 16.5492 21.0248 16.1824C20.4548 16.6087 19.86 16.9408 19.2801 17.1588C18.7796 17.3472 18.2195 17.4909 17.6099 17.5752C17.5058 18.2839 17.3224 18.9382 17.0696 19.4982C16.8515 19.984 16.5492 20.4845 16.1824 20.9752C16.6087 21.5452 16.9408 22.14 17.1588 22.7199C17.3472 23.2204 17.4909 23.7805 17.5752 24.3901C18.2839 24.4942 18.9382 24.6776 19.4982 24.9304C19.9839 25.1485 20.4845 25.4508 20.9752 25.8176C21.5452 25.3913 22.14 25.0592 22.7198 24.8412C23.2204 24.6528 23.7805 24.5091 24.3901 24.4248C24.4942 23.7161 24.6776 23.0618 24.9304 22.5018C25.1485 22.0161 25.4508 21.5155 25.8176 21.0248C25.3913 20.4548 25.0592 19.86 24.8412 19.2802C24.6528 18.7796 24.5091 18.2195 24.4248 17.6099C23.7161 17.5058 23.0618 17.3224 22.5018 17.0696ZM17.8676 4.34175C18.3533 3.27118 19.0472 2.1907 20.0087 1.11518L21 0L21.9913 1.11518C23.1164 2.37904 23.8796 3.66273 24.3604 4.9266C25.2079 7.17182 25.1385 9.31791 24.5438 11.1865C24.177 12.3462 23.607 13.392 22.928 14.2842C23.151 14.4329 23.3741 14.5568 23.5922 14.6559C23.835 14.7649 24.1126 14.8541 24.4149 14.9235C24.5636 13.734 24.9254 12.4999 25.545 11.35C26.5214 9.54095 28.1322 7.9351 30.5657 7.01322C31.6611 6.60184 32.92 6.32924 34.3623 6.24499L35.8442 6.16073L35.76 7.64267C35.6608 9.33774 35.299 10.785 34.7439 12.0142C33.7576 14.1999 32.1815 15.667 30.4418 16.574C29.3613 17.1341 28.2214 17.4711 27.1161 17.6198C27.1706 17.8825 27.24 18.1303 27.3243 18.3533C27.4185 18.6011 27.5523 18.8589 27.7208 19.1215C28.6674 18.388 29.7975 17.7685 31.0514 17.3967C33.0191 16.8069 35.2941 16.8119 37.6632 17.8825C38.7338 18.3682 39.8143 19.0621 40.8898 20.0236L42.005 21.0149L40.8898 22.0061C39.6259 23.1312 38.3422 23.8945 37.0784 24.3753C34.8331 25.2228 32.6821 25.1534 30.8185 24.5587C29.6587 24.1919 28.6129 23.6219 27.7208 22.9429C27.5721 23.1659 27.4482 23.389 27.3491 23.607C27.24 23.8499 27.1508 24.1275 27.0814 24.4298C28.2709 24.5785 29.5051 24.9403 30.6549 25.5598C32.464 26.5362 34.0699 28.147 34.9917 30.5806C35.4031 31.676 35.6757 32.9349 35.76 34.3772L35.8442 35.8591L34.3623 35.7748C32.6672 35.6757 31.22 35.3139 29.9908 34.7588C27.805 33.7725 26.338 32.1964 25.431 30.4567C24.8709 29.3762 24.5339 28.2363 24.3852 27.131C24.1225 27.1855 23.8747 27.2549 23.6516 27.3392C23.4038 27.4333 23.1461 27.5671 22.8834 27.7357C23.6169 28.6823 24.2365 29.8124 24.6082 31.0663C25.198 33.034 25.1931 35.3089 24.1225 37.6781C23.6417 38.7486 22.9429 39.8291 21.9814 40.9047L20.9901 42.0198L19.9988 40.9047C18.8737 39.6408 18.1105 38.3571 17.6297 37.0932C16.7822 34.848 16.8515 32.7019 17.4463 30.8334C17.8131 29.6736 18.3831 28.6278 19.0621 27.7357C18.839 27.587 18.616 27.4631 18.3979 27.3639C18.1551 27.2549 17.8775 27.1657 17.5752 27.0963C17.4265 28.2858 17.0647 29.5199 16.4451 30.6698C15.4687 32.4789 13.8579 34.0847 11.4244 35.0066C10.329 35.418 9.0701 35.6906 7.6278 35.7748L6.14586 35.8591L6.23011 34.3772C6.32924 32.6821 6.69105 31.2348 7.24616 30.0057C8.23247 27.8199 9.80859 26.3528 11.5483 25.4458C12.6287 24.8858 13.7687 24.5487 14.874 24.4C14.8194 24.1374 14.7501 23.8895 14.6658 23.6665C14.5716 23.4187 14.4378 23.161 14.2693 22.8983C13.3226 23.6318 12.1926 24.2514 10.9386 24.6231C8.97097 25.2129 6.69601 25.2079 4.32688 24.1374C3.25631 23.6566 2.17583 22.9578 1.10031 21.9962L0 21L1.11518 20.0087C2.37904 18.8836 3.66273 18.1204 4.9266 17.6396C7.17182 16.7921 9.31791 16.8615 11.1865 17.4562C12.3462 17.823 13.392 18.393 14.2842 19.072C14.4329 18.849 14.5568 18.6259 14.6559 18.4078C14.7649 18.165 14.8541 17.8874 14.9235 17.5851C13.734 17.4364 12.4999 17.0746 11.35 16.455C9.54095 15.4786 7.93509 13.8678 7.01322 11.4343C6.60184 10.3389 6.32924 9.08001 6.24498 7.63772L6.16073 6.15577L7.64267 6.24003C9.33774 6.33916 10.785 6.70097 12.0142 7.25608C14.1999 8.24239 15.667 9.8185 16.574 11.5582C17.1341 12.6387 17.4711 13.7786 17.6198 14.8839C17.8825 14.8294 18.1303 14.76 18.3533 14.6757C18.6011 14.5815 18.8589 14.4477 19.1215 14.2792C18.388 13.3325 17.7685 12.2025 17.3967 10.9485C16.7921 8.98088 16.797 6.71088 17.8676 4.34175ZM21 4.15837C20.7125 4.58957 20.4796 5.01086 20.2912 5.43215C19.5131 7.15199 19.5081 8.78263 19.9294 10.1952C20.1723 11.008 20.5539 11.7515 21.0149 12.3958C21.4262 11.801 21.7732 11.122 22.0111 10.3786C22.4373 9.03045 22.4919 7.47416 21.8773 5.85343C21.6691 5.30328 21.3767 4.7333 21 4.15837Z" fill="white"/>
</mask>
<g mask="url(#mask0_228_3968)">
<path d="M42 0H0V42H42V0Z" fill="url(#paint0_linear_228_3968)"/>
</g>
<g style="mix-blend-mode:multiply" opacity="0.5">
<path d="M17.6099 14.8839C17.6099 14.8839 17.7883 16.3807 17.6099 17.5752C18.2145 17.4909 18.7796 17.3472 19.2801 17.1588C19.86 16.9407 20.4548 16.6087 21.0248 16.1824L19.1116 14.2841C18.8489 14.4527 18.5912 14.5865 18.3434 14.6807C18.1204 14.76 17.8725 14.8293 17.6099 14.8839Z" fill="url(#paint1_linear_228_3968)"/>
</g>
<g style="mix-blend-mode:multiply" opacity="0.5">
<path d="M14.2842 19.067C14.2842 19.067 15.4687 19.9988 16.1874 20.9703C16.5542 20.4796 16.8516 19.984 17.0746 19.4982C17.3323 18.9332 17.5157 18.279 17.6198 17.5702L14.9235 17.5801C14.8591 17.8825 14.7699 18.16 14.6609 18.4029C14.5568 18.621 14.4329 18.844 14.2842 19.067Z" fill="url(#paint2_linear_228_3968)"/>
</g>
<g style="mix-blend-mode:multiply" opacity="0.5">
<path d="M22.9281 14.2792C22.9281 14.2792 21.9963 15.4638 21.0249 16.1824C21.5156 16.5492 22.0112 16.8466 22.4969 17.0696C23.062 17.3274 23.7162 17.5107 24.4249 17.6148L24.415 14.9186C24.1127 14.8541 23.8351 14.7649 23.5923 14.6559C23.3792 14.5518 23.1512 14.4279 22.9281 14.2792Z" fill="url(#paint3_linear_228_3968)"/>
</g>
<g style="mix-blend-mode:multiply" opacity="0.5">
<path d="M27.1161 17.6099C27.1161 17.6099 25.6193 17.7883 24.4248 17.6099C24.5091 18.2145 24.6528 18.7796 24.8411 19.2801C25.0592 19.86 25.3913 20.4548 25.8175 21.0248L27.7158 19.1116C27.5473 18.8489 27.4135 18.5912 27.3193 18.3434C27.24 18.1204 27.1706 17.8725 27.1161 17.6099Z" fill="url(#paint4_linear_228_3968)"/>
</g>
<g style="mix-blend-mode:multiply" opacity="0.5">
<path d="M27.7209 22.928C27.7209 22.928 26.5363 21.9962 25.8176 21.0248C25.4509 21.5155 25.1535 22.0111 24.9305 22.4968C24.6727 23.0618 24.4893 23.7161 24.3853 24.4248L27.0815 24.4149C27.1459 24.1126 27.2351 23.835 27.3442 23.5922C27.4483 23.379 27.5722 23.151 27.7209 22.928Z" fill="url(#paint5_linear_228_3968)"/>
</g>
<g style="mix-blend-mode:multiply" opacity="0.5">
<path d="M24.39 27.1161C24.39 27.1161 24.2116 25.6193 24.39 24.4248C23.7853 24.5091 23.2203 24.6528 22.7197 24.8412C22.1398 25.0592 21.5451 25.3913 20.9751 25.8176L22.8882 27.7158C23.1509 27.5473 23.4087 27.4135 23.6565 27.3193C23.8795 27.24 24.1273 27.1706 24.39 27.1161Z" fill="url(#paint6_linear_228_3968)"/>
</g>
<g style="mix-blend-mode:multiply" opacity="0.5">
<path d="M19.072 27.7208C19.072 27.7208 20.0038 26.5362 20.9752 25.8175C20.4846 25.4508 19.9889 25.1534 19.5032 24.9304C18.9382 24.6726 18.284 24.4892 17.5752 24.3852L17.5851 27.0814C17.8874 27.1458 18.165 27.2351 18.4079 27.3441C18.6259 27.4482 18.849 27.5721 19.072 27.7208Z" fill="url(#paint7_linear_228_3968)"/>
</g>
<g style="mix-blend-mode:multiply" opacity="0.5">
<path d="M14.8839 24.3901C14.8839 24.3901 16.3807 24.2117 17.5752 24.3901C17.4909 23.7855 17.3472 23.2204 17.1589 22.7198C16.9408 22.14 16.6087 21.5452 16.1825 20.9752L14.2842 22.8884C14.4527 23.1511 14.5865 23.4088 14.6807 23.6566C14.76 23.8796 14.8294 24.1274 14.8839 24.3901Z" fill="url(#paint8_linear_228_3968)"/>
</g>
<g style="mix-blend-mode:multiply" opacity="0.5">
<path d="M20.9999 4.15838C20.7124 4.58958 20.4795 5.01087 20.2911 5.43216C19.513 7.15201 19.508 8.78264 19.9293 10.1952C20.1722 11.008 20.5538 11.7515 21.0148 12.3958C21.0148 12.3958 20.1772 13.5903 19.1115 14.2792C18.378 13.3326 17.7585 12.2025 17.3867 10.9486C16.7969 8.98089 16.8019 6.70594 17.8725 4.33681C18.3582 3.26624 19.0521 2.18576 20.0136 1.11023L21.0049 -0.00494385L20.9999 4.15838Z" fill="url(#paint9_linear_228_3968)"/>
</g>
<g style="mix-blend-mode:multiply" opacity="0.5">
<path d="M32.91 9.08993C32.4044 9.19401 31.9385 9.32783 31.5073 9.48643C29.7429 10.1506 28.5831 11.3054 27.8842 12.599C27.4828 13.3474 27.225 14.1454 27.0962 14.9235C27.0962 14.9235 25.6588 15.1763 24.4148 14.9087C24.5635 13.7191 24.9253 12.485 25.5498 11.3351C26.5262 9.52608 28.132 7.92023 30.5706 7.00331C31.6659 6.58698 32.9298 6.31933 34.3671 6.23508L35.854 6.15082L32.91 9.08993Z" fill="url(#paint10_linear_228_3968)"/>
</g>
<g style="mix-blend-mode:multiply" opacity="0.5">
<path d="M37.8415 21C37.4103 20.7125 36.9891 20.4796 36.5678 20.2912C34.8479 19.5131 33.2173 19.5081 31.8047 19.9294C30.9919 20.1723 30.2484 20.5589 29.6041 21.0149C29.6041 21.0149 28.4096 20.1772 27.7207 19.1116C28.6674 18.3781 29.7974 17.7586 31.0514 17.3868C33.019 16.797 35.294 16.802 37.6631 17.8725C38.7337 18.3533 39.8142 19.0522 40.8897 20.0137L42.0049 21.005L37.8415 21Z" fill="url(#paint11_linear_228_3968)"/>
</g>
<g style="mix-blend-mode:multiply" opacity="0.5">
<path d="M32.9102 32.9101C32.8061 32.4045 32.6723 31.9386 32.5137 31.5074C31.8495 29.743 30.6947 28.5832 29.4011 27.8844C28.6527 27.4829 27.8547 27.2252 27.0766 27.0963C27.0766 27.0963 26.8238 25.659 27.0914 24.4149C28.281 24.5636 29.5151 24.9254 30.665 25.5499C32.474 26.5263 34.0799 28.1371 34.9968 30.5707C35.4131 31.671 35.6808 32.9299 35.765 34.3672L35.8493 35.8541L32.9102 32.9101Z" fill="url(#paint12_linear_228_3968)"/>
</g>
<g style="mix-blend-mode:multiply" opacity="0.5">
<path d="M21.0049 37.8416C21.2923 37.4104 21.5253 36.9891 21.7136 36.5679C22.4918 34.848 22.4967 33.2174 22.0754 31.8048C21.8326 30.992 21.446 30.2485 20.99 29.6042C20.99 29.6042 21.8276 28.4097 22.8982 27.7208C23.6317 28.6675 24.2513 29.7975 24.623 31.0515C25.2128 33.0191 25.2078 35.2941 24.1373 37.6632C23.6515 38.7338 22.9577 39.8143 21.9961 40.8898L21.0049 42.005V37.8416Z" fill="url(#paint13_linear_228_3968)"/>
</g>
<g style="mix-blend-mode:multiply" opacity="0.5">
<path d="M9.09494 32.9101C9.60049 32.806 10.0664 32.6722 10.4976 32.5136C12.262 31.8494 13.4218 30.6946 14.1207 29.401C14.5221 28.6526 14.7799 27.8546 14.9087 27.0765C14.9087 27.0765 16.3461 26.8237 17.5901 27.0913C17.4414 28.2809 17.0796 29.515 16.4551 30.6649C15.4787 32.4739 13.8679 34.0798 11.4343 34.9967C10.339 35.413 9.07512 35.6807 7.63778 35.7649L6.15088 35.8492L9.09494 32.9101Z" fill="url(#paint14_linear_228_3968)"/>
</g>
<g style="mix-blend-mode:multiply" opacity="0.5">
<path d="M4.15837 21.005C4.58957 21.2924 5.01086 21.5254 5.43215 21.7137C7.15199 22.4919 8.78263 22.4968 10.1952 22.0755C11.008 21.8327 11.7515 21.451 12.3958 20.9901C12.3958 20.9901 13.5903 21.8277 14.2792 22.8983C13.3325 23.6318 12.2025 24.2514 10.9485 24.6231C8.98088 25.2129 6.70592 25.2079 4.3368 24.1374C3.26623 23.6566 2.18574 22.9577 1.11022 21.9962L0 21L4.15837 21.005Z" fill="url(#paint15_linear_228_3968)"/>
</g>
<g style="mix-blend-mode:multiply" opacity="0.5">
<path d="M9.08999 9.09488C9.19407 9.60043 9.32789 10.0663 9.48649 10.4975C10.1506 12.262 11.3055 13.4218 12.5991 14.1206C13.3475 14.5221 14.1455 14.7798 14.9236 14.9087C14.9236 14.9087 15.1764 16.346 14.9087 17.59C13.7192 17.4414 12.4851 17.0795 11.3352 16.455C9.52614 15.4786 7.92029 13.8678 7.00337 11.4343C6.58704 10.3389 6.31939 9.07506 6.23514 7.63772L6.15088 6.15082L9.08999 9.09488Z" fill="url(#paint16_linear_228_3968)"/>
</g>
</g>
<path d="M57.848 16.1C57.95 16.292 58.043 16.493 58.127 16.703C58.217 16.907 58.304 17.114 58.388 17.324C58.472 17.108 58.559 16.895 58.649 16.685C58.739 16.475 58.835 16.274 58.937 16.082L62.789 8.873C62.837 8.783 62.885 8.711 62.933 8.657C62.987 8.603 63.044 8.564 63.104 8.54C63.17 8.516 63.242 8.501 63.32 8.495C63.398 8.489 63.491 8.486 63.599 8.486H65.426V21.5H63.293V13.094C63.293 12.938 63.296 12.767 63.302 12.581C63.314 12.395 63.329 12.206 63.347 12.014L59.414 19.394C59.324 19.562 59.207 19.694 59.063 19.79C58.919 19.88 58.751 19.925 58.559 19.925H58.226C58.034 19.925 57.866 19.88 57.722 19.79C57.578 19.694 57.461 19.562 57.371 19.394L53.384 11.987C53.408 12.185 53.423 12.38 53.429 12.572C53.441 12.758 53.447 12.932 53.447 13.094V21.5H51.314V8.486H53.141C53.249 8.486 53.342 8.489 53.42 8.495C53.498 8.501 53.567 8.516 53.627 8.54C53.693 8.564 53.753 8.603 53.807 8.657C53.861 8.711 53.912 8.783 53.96 8.873L57.848 16.1ZM70.2894 12.266V21.5H68.0664V12.266H70.2894ZM70.6224 9.575C70.6224 9.767 70.5834 9.947 70.5054 10.115C70.4274 10.283 70.3224 10.43 70.1904 10.556C70.0644 10.682 69.9144 10.784 69.7404 10.862C69.5664 10.934 69.3804 10.97 69.1824 10.97C68.9904 10.97 68.8074 10.934 68.6334 10.862C68.4654 10.784 68.3184 10.682 68.1924 10.556C68.0664 10.43 67.9644 10.283 67.8864 10.115C67.8144 9.947 67.7784 9.767 67.7784 9.575C67.7784 9.377 67.8144 9.191 67.8864 9.017C67.9644 8.843 68.0664 8.693 68.1924 8.567C68.3184 8.441 68.4654 8.342 68.6334 8.27C68.8074 8.192 68.9904 8.153 69.1824 8.153C69.3804 8.153 69.5664 8.192 69.7404 8.27C69.9144 8.342 70.0644 8.441 70.1904 8.567C70.3224 8.693 70.4274 8.843 70.5054 9.017C70.5834 9.191 70.6224 9.377 70.6224 9.575ZM72.8091 21.5V12.266H74.1681C74.4561 12.266 74.6451 12.401 74.7351 12.671L74.8881 13.4C75.0741 13.208 75.2691 13.034 75.4731 12.878C75.6831 12.722 75.9021 12.587 76.1301 12.473C76.3641 12.359 76.6131 12.272 76.8771 12.212C77.1411 12.152 77.4291 12.122 77.7411 12.122C78.2451 12.122 78.6921 12.209 79.0821 12.383C79.4721 12.551 79.7961 12.791 80.0541 13.103C80.3181 13.409 80.5161 13.778 80.6481 14.21C80.7861 14.636 80.8551 15.107 80.8551 15.623V21.5H78.6321V15.623C78.6321 15.059 78.5001 14.624 78.2361 14.318C77.9781 14.006 77.5881 13.85 77.0661 13.85C76.6821 13.85 76.3221 13.937 75.9861 14.111C75.6501 14.285 75.3321 14.522 75.0321 14.822V21.5H72.8091ZM89.5376 21.5C89.2496 21.5 89.0606 21.365 88.9706 21.095L88.7906 20.204C88.5986 20.42 88.3976 20.615 88.1876 20.789C87.9776 20.963 87.7496 21.113 87.5036 21.239C87.2636 21.365 87.0026 21.461 86.7206 21.527C86.4446 21.599 86.1446 21.635 85.8206 21.635C85.3166 21.635 84.8546 21.53 84.4346 21.32C84.0146 21.11 83.6516 20.807 83.3456 20.411C83.0456 20.009 82.8116 19.514 82.6436 18.926C82.4816 18.338 82.4006 17.666 82.4006 16.91C82.4006 16.226 82.4936 15.59 82.6796 15.002C82.8656 14.414 83.1326 13.904 83.4806 13.472C83.8286 13.04 84.2456 12.704 84.7316 12.464C85.2176 12.218 85.7636 12.095 86.3696 12.095C86.8856 12.095 87.3266 12.179 87.6926 12.347C88.0586 12.509 88.3856 12.728 88.6736 13.004V8.126H90.8966V21.5H89.5376ZM86.5766 19.871C87.0386 19.871 87.4316 19.775 87.7556 19.583C88.0796 19.391 88.3856 19.118 88.6736 18.764V14.624C88.4216 14.318 88.1456 14.102 87.8456 13.976C87.5516 13.85 87.2336 13.787 86.8916 13.787C86.5556 13.787 86.2496 13.85 85.9736 13.976C85.7036 14.102 85.4726 14.294 85.2806 14.552C85.0946 14.804 84.9506 15.128 84.8486 15.524C84.7466 15.914 84.6956 16.376 84.6956 16.91C84.6956 17.45 84.7376 17.909 84.8216 18.287C84.9116 18.659 85.0376 18.965 85.1996 19.205C85.3616 19.439 85.5596 19.61 85.7936 19.718C86.0276 19.82 86.2886 19.871 86.5766 19.871ZM106.083 8.486V10.475H102.168V21.5H99.7467V10.475H95.8137V8.486H106.083ZM112.529 21.5H111.53C111.32 21.5 111.155 21.47 111.035 21.41C110.915 21.344 110.825 21.215 110.765 21.023L110.567 20.366C110.333 20.576 110.102 20.762 109.874 20.924C109.652 21.08 109.421 21.212 109.181 21.32C108.941 21.428 108.686 21.509 108.416 21.563C108.146 21.617 107.846 21.644 107.516 21.644C107.126 21.644 106.766 21.593 106.436 21.491C106.106 21.383 105.821 21.224 105.581 21.014C105.347 20.804 105.164 20.543 105.032 20.231C104.9 19.919 104.834 19.556 104.834 19.142C104.834 18.794 104.924 18.452 105.104 18.116C105.29 17.774 105.596 17.468 106.022 17.198C106.448 16.922 107.015 16.694 107.723 16.514C108.431 16.334 109.31 16.232 110.36 16.208V15.668C110.36 15.05 110.228 14.594 109.964 14.3C109.706 14 109.328 13.85 108.83 13.85C108.47 13.85 108.17 13.892 107.93 13.976C107.69 14.06 107.48 14.156 107.3 14.264C107.126 14.366 106.964 14.459 106.814 14.543C106.664 14.627 106.499 14.669 106.319 14.669C106.169 14.669 106.04 14.63 105.932 14.552C105.824 14.474 105.737 14.378 105.671 14.264L105.266 13.553C106.328 12.581 107.609 12.095 109.109 12.095C109.649 12.095 110.129 12.185 110.549 12.365C110.975 12.539 111.335 12.785 111.629 13.103C111.923 13.415 112.145 13.79 112.295 14.228C112.451 14.666 112.529 15.146 112.529 15.668V21.5ZM108.209 20.114C108.437 20.114 108.647 20.093 108.839 20.051C109.031 20.009 109.211 19.946 109.379 19.862C109.553 19.778 109.718 19.676 109.874 19.556C110.036 19.43 110.198 19.283 110.36 19.115V17.558C109.712 17.588 109.169 17.645 108.731 17.729C108.299 17.807 107.951 17.909 107.687 18.035C107.423 18.161 107.234 18.308 107.12 18.476C107.012 18.644 106.958 18.827 106.958 19.025C106.958 19.415 107.072 19.694 107.3 19.862C107.534 20.03 107.837 20.114 108.209 20.114ZM117.082 8.126V21.5H114.859V8.126H117.082ZM121.852 8.126V15.785H122.266C122.416 15.785 122.533 15.764 122.617 15.722C122.701 15.68 122.791 15.602 122.887 15.488L125.182 12.653C125.284 12.533 125.392 12.44 125.506 12.374C125.62 12.302 125.77 12.266 125.956 12.266H127.99L125.119 15.695C125.017 15.821 124.912 15.938 124.804 16.046C124.696 16.148 124.579 16.238 124.453 16.316C124.579 16.406 124.69 16.511 124.786 16.631C124.882 16.751 124.978 16.88 125.074 17.018L128.152 21.5H126.145C125.971 21.5 125.824 21.47 125.704 21.41C125.584 21.35 125.476 21.248 125.38 21.104L123.031 17.603C122.941 17.465 122.851 17.375 122.761 17.333C122.671 17.291 122.536 17.27 122.356 17.27H121.852V21.5H119.629V8.126H121.852ZM135.015 14.066C134.955 14.162 134.892 14.231 134.826 14.273C134.76 14.309 134.676 14.327 134.574 14.327C134.466 14.327 134.349 14.297 134.223 14.237C134.103 14.177 133.962 14.111 133.8 14.039C133.638 13.961 133.452 13.892 133.242 13.832C133.038 13.772 132.795 13.742 132.513 13.742C132.075 13.742 131.73 13.835 131.478 14.021C131.226 14.207 131.1 14.45 131.1 14.75C131.1 14.948 131.163 15.116 131.289 15.254C131.421 15.386 131.592 15.503 131.802 15.605C132.018 15.707 132.261 15.8 132.531 15.884C132.801 15.962 133.077 16.049 133.359 16.145C133.641 16.241 133.917 16.352 134.187 16.478C134.457 16.598 134.697 16.754 134.907 16.946C135.123 17.132 135.294 17.357 135.42 17.621C135.552 17.885 135.618 18.203 135.618 18.575C135.618 19.019 135.537 19.43 135.375 19.808C135.213 20.18 134.976 20.504 134.664 20.78C134.352 21.05 133.965 21.263 133.503 21.419C133.047 21.569 132.522 21.644 131.928 21.644C131.61 21.644 131.298 21.614 130.992 21.554C130.692 21.5 130.401 21.422 130.119 21.32C129.843 21.218 129.585 21.098 129.345 20.96C129.111 20.822 128.904 20.672 128.724 20.51L129.237 19.664C129.303 19.562 129.381 19.484 129.471 19.43C129.561 19.376 129.675 19.349 129.813 19.349C129.951 19.349 130.08 19.388 130.2 19.466C130.326 19.544 130.47 19.628 130.632 19.718C130.794 19.808 130.983 19.892 131.199 19.97C131.421 20.048 131.7 20.087 132.036 20.087C132.3 20.087 132.525 20.057 132.711 19.997C132.903 19.931 133.059 19.847 133.179 19.745C133.305 19.643 133.395 19.526 133.449 19.394C133.509 19.256 133.539 19.115 133.539 18.971C133.539 18.755 133.473 18.578 133.341 18.44C133.215 18.302 133.044 18.182 132.828 18.08C132.618 17.978 132.375 17.888 132.099 17.81C131.829 17.726 131.55 17.636 131.262 17.54C130.98 17.444 130.701 17.333 130.425 17.207C130.155 17.075 129.912 16.91 129.696 16.712C129.486 16.514 129.315 16.271 129.183 15.983C129.057 15.695 128.994 15.347 128.994 14.939C128.994 14.561 129.069 14.201 129.219 13.859C129.369 13.517 129.588 13.22 129.876 12.968C130.17 12.71 130.533 12.506 130.965 12.356C131.403 12.2 131.907 12.122 132.477 12.122C133.113 12.122 133.692 12.227 134.214 12.437C134.736 12.647 135.171 12.923 135.519 13.265L135.015 14.066Z" fill="#1D2433"/>
<path d="M55.75 30.335V31.15H53.435V37.5H52.465V31.15H50.14V30.335H55.75ZM56.6284 37.5V30.135H57.5184V33.115C57.7351 32.885 57.9751 32.7017 58.2384 32.565C58.5018 32.425 58.8051 32.355 59.1484 32.355C59.4251 32.355 59.6684 32.4017 59.8784 32.495C60.0918 32.585 60.2684 32.715 60.4084 32.885C60.5518 33.0517 60.6601 33.2533 60.7334 33.49C60.8068 33.7267 60.8434 33.9883 60.8434 34.275V37.5H59.9534V34.275C59.9534 33.8917 59.8651 33.595 59.6884 33.385C59.5151 33.1717 59.2484 33.065 58.8884 33.065C58.6251 33.065 58.3784 33.1283 58.1484 33.255C57.9218 33.3817 57.7118 33.5533 57.5184 33.77V37.5H56.6284ZM64.1901 32.355C64.4934 32.355 64.7734 32.4067 65.0301 32.51C65.2867 32.61 65.5084 32.7567 65.6951 32.95C65.8817 33.14 66.0267 33.3767 66.1301 33.66C66.2367 33.94 66.2901 34.26 66.2901 34.62C66.2901 34.76 66.2751 34.8533 66.2451 34.9C66.2151 34.9467 66.1584 34.97 66.0751 34.97H62.7051C62.7117 35.29 62.7551 35.5683 62.8351 35.805C62.9151 36.0417 63.0251 36.24 63.1651 36.4C63.3051 36.5567 63.4717 36.675 63.6651 36.755C63.8584 36.8317 64.0751 36.87 64.3151 36.87C64.5384 36.87 64.7301 36.845 64.8901 36.795C65.0534 36.7417 65.1934 36.685 65.3101 36.625C65.4267 36.565 65.5234 36.51 65.6001 36.46C65.6801 36.4067 65.7484 36.38 65.8051 36.38C65.8784 36.38 65.9351 36.4083 65.9751 36.465L66.2251 36.79C66.1151 36.9233 65.9834 37.04 65.8301 37.14C65.6767 37.2367 65.5117 37.3167 65.3351 37.38C65.1617 37.4433 64.9817 37.49 64.7951 37.52C64.6084 37.5533 64.4234 37.57 64.2401 37.57C63.8901 37.57 63.5667 37.5117 63.2701 37.395C62.9767 37.275 62.7217 37.1017 62.5051 36.875C62.2917 36.645 62.1251 36.3617 62.0051 36.025C61.8851 35.6883 61.8251 35.3017 61.8251 34.865C61.8251 34.5117 61.8784 34.1817 61.9851 33.875C62.0951 33.5683 62.2517 33.3033 62.4551 33.08C62.6584 32.8533 62.9067 32.6767 63.2001 32.55C63.4934 32.42 63.8234 32.355 64.1901 32.355ZM64.2101 33.01C63.7801 33.01 63.4417 33.135 63.1951 33.385C62.9484 33.6317 62.7951 33.975 62.7351 34.415H65.4901C65.4901 34.2083 65.4617 34.02 65.4051 33.85C65.3484 33.6767 65.2651 33.5283 65.1551 33.405C65.0451 33.2783 64.9101 33.1817 64.7501 33.115C64.5934 33.045 64.4134 33.01 64.2101 33.01ZM69.3628 39.215V32.435H69.8928C70.0195 32.435 70.0995 32.4967 70.1328 32.62L70.2078 33.22C70.4245 32.9567 70.6711 32.745 70.9478 32.585C71.2278 32.425 71.5495 32.345 71.9128 32.345C72.2028 32.345 72.4661 32.4017 72.7028 32.515C72.9395 32.625 73.1411 32.79 73.3078 33.01C73.4745 33.2267 73.6028 33.4967 73.6928 33.82C73.7828 34.1433 73.8278 34.515 73.8278 34.935C73.8278 35.3083 73.7778 35.6567 73.6778 35.98C73.5778 36.3 73.4345 36.5783 73.2478 36.815C73.0611 37.0483 72.8311 37.2333 72.5578 37.37C72.2878 37.5033 71.9828 37.57 71.6428 37.57C71.3295 37.57 71.0611 37.5183 70.8378 37.415C70.6178 37.3117 70.4228 37.165 70.2528 36.975V39.215H69.3628ZM71.6178 33.065C71.3278 33.065 71.0728 33.1317 70.8528 33.265C70.6361 33.3983 70.4361 33.5867 70.2528 33.83V36.28C70.4161 36.5 70.5945 36.655 70.7878 36.745C70.9845 36.835 71.2028 36.88 71.4428 36.88C71.9128 36.88 72.2745 36.7117 72.5278 36.375C72.7811 36.0383 72.9078 35.5583 72.9078 34.935C72.9078 34.605 72.8778 34.3217 72.8178 34.085C72.7611 33.8483 72.6778 33.655 72.5678 33.505C72.4578 33.3517 72.3228 33.24 72.1628 33.17C72.0028 33.1 71.8211 33.065 71.6178 33.065ZM76.9304 32.355C77.3004 32.355 77.6337 32.4167 77.9304 32.54C78.2304 32.6633 78.4837 32.8383 78.6904 33.065C78.9004 33.2917 79.0604 33.5667 79.1704 33.89C79.2837 34.21 79.3404 34.5683 79.3404 34.965C79.3404 35.365 79.2837 35.725 79.1704 36.045C79.0604 36.365 78.9004 36.6383 78.6904 36.865C78.4837 37.0917 78.2304 37.2667 77.9304 37.39C77.6337 37.51 77.3004 37.57 76.9304 37.57C76.5604 37.57 76.2254 37.51 75.9254 37.39C75.6287 37.2667 75.3754 37.0917 75.1654 36.865C74.9554 36.6383 74.7937 36.365 74.6804 36.045C74.5671 35.725 74.5104 35.365 74.5104 34.965C74.5104 34.5683 74.5671 34.21 74.6804 33.89C74.7937 33.5667 74.9554 33.2917 75.1654 33.065C75.3754 32.8383 75.6287 32.6633 75.9254 32.54C76.2254 32.4167 76.5604 32.355 76.9304 32.355ZM76.9304 36.875C77.4304 36.875 77.8037 36.7083 78.0504 36.375C78.2971 36.0383 78.4204 35.57 78.4204 34.97C78.4204 34.3667 78.2971 33.8967 78.0504 33.56C77.8037 33.2233 77.4304 33.055 76.9304 33.055C76.6771 33.055 76.4571 33.0983 76.2704 33.185C76.0837 33.2717 75.9271 33.3967 75.8004 33.56C75.6771 33.7233 75.5837 33.925 75.5204 34.165C75.4604 34.4017 75.4304 34.67 75.4304 34.97C75.4304 35.27 75.4604 35.5383 75.5204 35.775C75.5837 36.0117 75.6771 36.2117 75.8004 36.375C75.9271 36.535 76.0837 36.6583 76.2704 36.745C76.4571 36.8317 76.6771 36.875 76.9304 36.875ZM79.777 32.435H80.477C80.5504 32.435 80.6104 32.4533 80.657 32.49C80.7037 32.5267 80.7354 32.57 80.752 32.62L81.722 35.88C81.7487 36 81.7737 36.1167 81.797 36.23C81.8204 36.34 81.8404 36.4517 81.857 36.565C81.8837 36.4517 81.9137 36.34 81.947 36.23C81.9804 36.1167 82.0154 36 82.052 35.88L83.122 32.6C83.1387 32.55 83.167 32.5083 83.207 32.475C83.2504 32.4417 83.3037 32.425 83.367 32.425H83.752C83.8187 32.425 83.8737 32.4417 83.917 32.475C83.9604 32.5083 83.9904 32.55 84.007 32.6L85.052 35.88C85.0887 35.9967 85.1204 36.1117 85.147 36.225C85.177 36.3383 85.2054 36.45 85.232 36.56C85.2487 36.45 85.2704 36.335 85.297 36.215C85.3237 36.095 85.352 35.9833 85.382 35.88L86.372 32.62C86.3887 32.5667 86.4204 32.5233 86.467 32.49C86.5137 32.4533 86.5687 32.435 86.632 32.435H87.302L85.662 37.5H84.957C84.8704 37.5 84.8104 37.4433 84.777 37.33L83.657 33.895C83.6304 33.8183 83.6087 33.7417 83.592 33.665C83.5754 33.585 83.5587 33.5067 83.542 33.43C83.5254 33.5067 83.5087 33.585 83.492 33.665C83.4754 33.745 83.4537 33.8233 83.427 33.9L82.292 37.33C82.2554 37.4433 82.187 37.5 82.087 37.5H81.417L79.777 32.435ZM90.0983 32.355C90.4016 32.355 90.6816 32.4067 90.9383 32.51C91.1949 32.61 91.4166 32.7567 91.6033 32.95C91.7899 33.14 91.9349 33.3767 92.0383 33.66C92.1449 33.94 92.1983 34.26 92.1983 34.62C92.1983 34.76 92.1833 34.8533 92.1533 34.9C92.1233 34.9467 92.0666 34.97 91.9833 34.97H88.6133C88.6199 35.29 88.6633 35.5683 88.7433 35.805C88.8233 36.0417 88.9333 36.24 89.0733 36.4C89.2133 36.5567 89.3799 36.675 89.5733 36.755C89.7666 36.8317 89.9833 36.87 90.2233 36.87C90.4466 36.87 90.6383 36.845 90.7983 36.795C90.9616 36.7417 91.1016 36.685 91.2183 36.625C91.3349 36.565 91.4316 36.51 91.5083 36.46C91.5883 36.4067 91.6566 36.38 91.7133 36.38C91.7866 36.38 91.8433 36.4083 91.8833 36.465L92.1333 36.79C92.0233 36.9233 91.8916 37.04 91.7383 37.14C91.5849 37.2367 91.4199 37.3167 91.2433 37.38C91.0699 37.4433 90.8899 37.49 90.7033 37.52C90.5166 37.5533 90.3316 37.57 90.1483 37.57C89.7983 37.57 89.4749 37.5117 89.1783 37.395C88.8849 37.275 88.6299 37.1017 88.4133 36.875C88.1999 36.645 88.0333 36.3617 87.9133 36.025C87.7933 35.6883 87.7333 35.3017 87.7333 34.865C87.7333 34.5117 87.7866 34.1817 87.8933 33.875C88.0033 33.5683 88.1599 33.3033 88.3633 33.08C88.5666 32.8533 88.8149 32.6767 89.1083 32.55C89.4016 32.42 89.7316 32.355 90.0983 32.355ZM90.1183 33.01C89.6883 33.01 89.3499 33.135 89.1033 33.385C88.8566 33.6317 88.7033 33.975 88.6433 34.415H91.3983C91.3983 34.2083 91.3699 34.02 91.3133 33.85C91.2566 33.6767 91.1733 33.5283 91.0633 33.405C90.9533 33.2783 90.8183 33.1817 90.6583 33.115C90.5016 33.045 90.3216 33.01 90.1183 33.01ZM93.3374 37.5V32.435H93.8474C93.9441 32.435 94.0108 32.4533 94.0474 32.49C94.0841 32.5267 94.1091 32.59 94.1224 32.68L94.1824 33.47C94.3558 33.1167 94.5691 32.8417 94.8224 32.645C95.0791 32.445 95.3791 32.345 95.7224 32.345C95.8624 32.345 95.9891 32.3617 96.1024 32.395C96.2158 32.425 96.3208 32.4683 96.4174 32.525L96.3024 33.19C96.2791 33.2733 96.2274 33.315 96.1474 33.315C96.1008 33.315 96.0291 33.3 95.9324 33.27C95.8358 33.2367 95.7008 33.22 95.5274 33.22C95.2174 33.22 94.9574 33.31 94.7474 33.49C94.5408 33.67 94.3674 33.9317 94.2274 34.275V37.5H93.3374ZM101.354 32.355C101.724 32.355 102.058 32.4167 102.354 32.54C102.654 32.6633 102.908 32.8383 103.114 33.065C103.324 33.2917 103.484 33.5667 103.594 33.89C103.708 34.21 103.764 34.5683 103.764 34.965C103.764 35.365 103.708 35.725 103.594 36.045C103.484 36.365 103.324 36.6383 103.114 36.865C102.908 37.0917 102.654 37.2667 102.354 37.39C102.058 37.51 101.724 37.57 101.354 37.57C100.984 37.57 100.649 37.51 100.349 37.39C100.053 37.2667 99.7992 37.0917 99.5892 36.865C99.3792 36.6383 99.2176 36.365 99.1042 36.045C98.9909 35.725 98.9342 35.365 98.9342 34.965C98.9342 34.5683 98.9909 34.21 99.1042 33.89C99.2176 33.5667 99.3792 33.2917 99.5892 33.065C99.7992 32.8383 100.053 32.6633 100.349 32.54C100.649 32.4167 100.984 32.355 101.354 32.355ZM101.354 36.875C101.854 36.875 102.228 36.7083 102.474 36.375C102.721 36.0383 102.844 35.57 102.844 34.97C102.844 34.3667 102.721 33.8967 102.474 33.56C102.228 33.2233 101.854 33.055 101.354 33.055C101.101 33.055 100.881 33.0983 100.694 33.185C100.508 33.2717 100.351 33.3967 100.224 33.56C100.101 33.7233 100.008 33.925 99.9442 34.165C99.8842 34.4017 99.8542 34.67 99.8542 34.97C99.8542 35.27 99.8842 35.5383 99.9442 35.775C100.008 36.0117 100.101 36.2117 100.224 36.375C100.351 36.535 100.508 36.6583 100.694 36.745C100.881 36.8317 101.101 36.875 101.354 36.875ZM105.061 37.5V33.195L104.501 33.13C104.431 33.1133 104.373 33.0883 104.326 33.055C104.283 33.0183 104.261 32.9667 104.261 32.9V32.535H105.061V32.045C105.061 31.755 105.101 31.4983 105.181 31.275C105.264 31.0483 105.381 30.8583 105.531 30.705C105.684 30.5483 105.868 30.43 106.081 30.35C106.294 30.27 106.534 30.23 106.801 30.23C107.028 30.23 107.238 30.2633 107.431 30.33L107.411 30.775C107.408 30.8417 107.379 30.8817 107.326 30.895C107.273 30.9083 107.198 30.915 107.101 30.915H106.946C106.793 30.915 106.653 30.935 106.526 30.975C106.403 31.015 106.296 31.08 106.206 31.17C106.116 31.26 106.046 31.3783 105.996 31.525C105.949 31.6717 105.926 31.8533 105.926 32.07V32.535H107.391V33.18H105.956V37.5H105.061ZM111.154 30.135V37.5H110.264V30.135H111.154ZM114.727 32.355C115.031 32.355 115.311 32.4067 115.567 32.51C115.824 32.61 116.046 32.7567 116.232 32.95C116.419 33.14 116.564 33.3767 116.667 33.66C116.774 33.94 116.827 34.26 116.827 34.62C116.827 34.76 116.812 34.8533 116.782 34.9C116.752 34.9467 116.696 34.97 116.612 34.97H113.242C113.249 35.29 113.292 35.5683 113.372 35.805C113.452 36.0417 113.562 36.24 113.702 36.4C113.842 36.5567 114.009 36.675 114.202 36.755C114.396 36.8317 114.612 36.87 114.852 36.87C115.076 36.87 115.267 36.845 115.427 36.795C115.591 36.7417 115.731 36.685 115.847 36.625C115.964 36.565 116.061 36.51 116.137 36.46C116.217 36.4067 116.286 36.38 116.342 36.38C116.416 36.38 116.472 36.4083 116.512 36.465L116.762 36.79C116.652 36.9233 116.521 37.04 116.367 37.14C116.214 37.2367 116.049 37.3167 115.872 37.38C115.699 37.4433 115.519 37.49 115.332 37.52C115.146 37.5533 114.961 37.57 114.777 37.57C114.427 37.57 114.104 37.5117 113.807 37.395C113.514 37.275 113.259 37.1017 113.042 36.875C112.829 36.645 112.662 36.3617 112.542 36.025C112.422 35.6883 112.362 35.3017 112.362 34.865C112.362 34.5117 112.416 34.1817 112.522 33.875C112.632 33.5683 112.789 33.3033 112.992 33.08C113.196 32.8533 113.444 32.6767 113.737 32.55C114.031 32.42 114.361 32.355 114.727 32.355ZM114.747 33.01C114.317 33.01 113.979 33.135 113.732 33.385C113.486 33.6317 113.332 33.975 113.272 34.415H116.027C116.027 34.2083 115.999 34.02 115.942 33.85C115.886 33.6767 115.802 33.5283 115.692 33.405C115.582 33.2783 115.447 33.1817 115.287 33.115C115.131 33.045 114.951 33.01 114.747 33.01ZM121.686 37.5H121.291C121.205 37.5 121.135 37.4867 121.081 37.46C121.028 37.4333 120.993 37.3767 120.976 37.29L120.876 36.82C120.743 36.94 120.613 37.0483 120.486 37.145C120.36 37.2383 120.226 37.3183 120.086 37.385C119.946 37.4483 119.796 37.4967 119.636 37.53C119.48 37.5633 119.305 37.58 119.111 37.58C118.915 37.58 118.73 37.5533 118.556 37.5C118.386 37.4433 118.238 37.36 118.111 37.25C117.985 37.14 117.883 37.0017 117.806 36.835C117.733 36.665 117.696 36.465 117.696 36.235C117.696 36.035 117.751 35.8433 117.861 35.66C117.971 35.4733 118.148 35.3083 118.391 35.165C118.638 35.0217 118.96 34.905 119.356 34.815C119.753 34.7217 120.238 34.6683 120.811 34.655V34.26C120.811 33.8667 120.726 33.57 120.556 33.37C120.39 33.1667 120.141 33.065 119.811 33.065C119.595 33.065 119.411 33.0933 119.261 33.15C119.115 33.2033 118.986 33.265 118.876 33.335C118.77 33.4017 118.676 33.4633 118.596 33.52C118.52 33.5733 118.443 33.6 118.366 33.6C118.306 33.6 118.253 33.585 118.206 33.555C118.163 33.5217 118.128 33.4817 118.101 33.435L117.941 33.15C118.221 32.88 118.523 32.6783 118.846 32.545C119.17 32.4117 119.528 32.345 119.921 32.345C120.205 32.345 120.456 32.3917 120.676 32.485C120.896 32.5783 121.081 32.7083 121.231 32.875C121.381 33.0417 121.495 33.2433 121.571 33.48C121.648 33.7167 121.686 33.9767 121.686 34.26V37.5ZM119.376 36.955C119.533 36.955 119.676 36.94 119.806 36.91C119.936 36.8767 120.058 36.8317 120.171 36.775C120.288 36.715 120.398 36.6433 120.501 36.56C120.608 36.4767 120.711 36.3817 120.811 36.275V35.22C120.401 35.2333 120.053 35.2667 119.766 35.32C119.48 35.37 119.246 35.4367 119.066 35.52C118.886 35.6033 118.755 35.7017 118.671 35.815C118.591 35.9283 118.551 36.055 118.551 36.195C118.551 36.3283 118.573 36.4433 118.616 36.54C118.66 36.6367 118.718 36.7167 118.791 36.78C118.865 36.84 118.951 36.885 119.051 36.915C119.151 36.9417 119.26 36.955 119.376 36.955ZM123.035 37.5V32.435H123.545C123.641 32.435 123.708 32.4533 123.745 32.49C123.781 32.5267 123.806 32.59 123.82 32.68L123.88 33.47C124.053 33.1167 124.266 32.8417 124.52 32.645C124.776 32.445 125.076 32.345 125.42 32.345C125.56 32.345 125.686 32.3617 125.8 32.395C125.913 32.425 126.018 32.4683 126.115 32.525L126 33.19C125.976 33.2733 125.925 33.315 125.845 33.315C125.798 33.315 125.726 33.3 125.63 33.27C125.533 33.2367 125.398 33.22 125.225 33.22C124.915 33.22 124.655 33.31 124.445 33.49C124.238 33.67 124.065 33.9317 123.925 34.275V37.5H123.035ZM127.068 37.5V32.435H127.598C127.725 32.435 127.805 32.4967 127.838 32.62L127.908 33.17C128.128 32.9267 128.373 32.73 128.643 32.58C128.916 32.43 129.231 32.355 129.588 32.355C129.865 32.355 130.108 32.4017 130.318 32.495C130.531 32.585 130.708 32.715 130.848 32.885C130.991 33.0517 131.1 33.2533 131.173 33.49C131.246 33.7267 131.283 33.9883 131.283 34.275V37.5H130.393V34.275C130.393 33.8917 130.305 33.595 130.128 33.385C129.955 33.1717 129.688 33.065 129.328 33.065C129.065 33.065 128.818 33.1283 128.588 33.255C128.361 33.3817 128.151 33.5533 127.958 33.77V37.5H127.068ZM133.615 32.435V37.5H132.725V32.435H133.615ZM133.815 30.845C133.815 30.9317 133.796 31.0133 133.76 31.09C133.726 31.1633 133.68 31.23 133.62 31.29C133.563 31.3467 133.496 31.3917 133.42 31.425C133.343 31.4583 133.261 31.475 133.175 31.475C133.088 31.475 133.006 31.4583 132.93 31.425C132.856 31.3917 132.79 31.3467 132.73 31.29C132.673 31.23 132.628 31.1633 132.595 31.09C132.561 31.0133 132.545 30.9317 132.545 30.845C132.545 30.7583 132.561 30.6767 132.595 30.6C132.628 30.52 132.673 30.4517 132.73 30.395C132.79 30.335 132.856 30.2883 132.93 30.255C133.006 30.2217 133.088 30.205 133.175 30.205C133.261 30.205 133.343 30.2217 133.42 30.255C133.496 30.2883 133.563 30.335 133.62 30.395C133.68 30.4517 133.726 30.52 133.76 30.6C133.796 30.6767 133.815 30.7583 133.815 30.845ZM135.183 37.5V32.435H135.713C135.84 32.435 135.92 32.4967 135.953 32.62L136.023 33.17C136.243 32.9267 136.488 32.73 136.758 32.58C137.031 32.43 137.346 32.355 137.703 32.355C137.98 32.355 138.223 32.4017 138.433 32.495C138.646 32.585 138.823 32.715 138.963 32.885C139.106 33.0517 139.215 33.2533 139.288 33.49C139.361 33.7267 139.398 33.9883 139.398 34.275V37.5H138.508V34.275C138.508 33.8917 138.42 33.595 138.243 33.385C138.07 33.1717 137.803 33.065 137.443 33.065C137.18 33.065 136.933 33.1283 136.703 33.255C136.476 33.3817 136.266 33.5533 136.073 33.77V37.5H135.183ZM142.445 32.35C142.665 32.35 142.87 32.375 143.06 32.425C143.253 32.4717 143.428 32.5417 143.585 32.635H144.96V32.965C144.96 33.075 144.89 33.145 144.75 33.175L144.175 33.255C144.288 33.4717 144.345 33.7133 144.345 33.98C144.345 34.2267 144.296 34.4517 144.2 34.655C144.106 34.855 143.975 35.0267 143.805 35.17C143.638 35.3133 143.438 35.4233 143.205 35.5C142.975 35.5767 142.721 35.615 142.445 35.615C142.208 35.615 141.985 35.5867 141.775 35.53C141.668 35.5967 141.586 35.6683 141.53 35.745C141.476 35.8217 141.45 35.8967 141.45 35.97C141.45 36.09 141.498 36.1817 141.595 36.245C141.691 36.305 141.82 36.3483 141.98 36.375C142.14 36.4017 142.321 36.4183 142.525 36.425C142.728 36.4317 142.935 36.4433 143.145 36.46C143.358 36.4733 143.566 36.4983 143.77 36.535C143.973 36.5717 144.155 36.6317 144.315 36.715C144.475 36.7983 144.603 36.9133 144.7 37.06C144.796 37.2067 144.845 37.3967 144.845 37.63C144.845 37.8467 144.79 38.0567 144.68 38.26C144.573 38.4633 144.418 38.6433 144.215 38.8C144.011 38.96 143.763 39.0867 143.47 39.18C143.176 39.2767 142.845 39.325 142.475 39.325C142.105 39.325 141.78 39.2883 141.5 39.215C141.223 39.1417 140.993 39.0433 140.81 38.92C140.626 38.7967 140.488 38.6533 140.395 38.49C140.305 38.33 140.26 38.1617 140.26 37.985C140.26 37.735 140.338 37.5233 140.495 37.35C140.655 37.1733 140.873 37.0333 141.15 36.93C141.006 36.8633 140.891 36.775 140.805 36.665C140.721 36.5517 140.68 36.4017 140.68 36.215C140.68 36.1417 140.693 36.0667 140.72 35.99C140.746 35.91 140.786 35.8317 140.84 35.755C140.896 35.6783 140.965 35.605 141.045 35.535C141.125 35.465 141.218 35.4033 141.325 35.35C141.075 35.21 140.878 35.025 140.735 34.795C140.595 34.5617 140.525 34.29 140.525 33.98C140.525 33.7333 140.571 33.51 140.665 33.31C140.761 33.1067 140.895 32.935 141.065 32.795C141.235 32.6517 141.436 32.5417 141.67 32.465C141.906 32.3883 142.165 32.35 142.445 32.35ZM144.025 37.775C144.025 37.6483 143.99 37.5467 143.92 37.47C143.85 37.3933 143.755 37.335 143.635 37.295C143.515 37.2517 143.376 37.22 143.22 37.2C143.063 37.18 142.898 37.1667 142.725 37.16C142.551 37.15 142.375 37.14 142.195 37.13C142.015 37.12 141.843 37.1017 141.68 37.075C141.49 37.165 141.335 37.275 141.215 37.405C141.098 37.535 141.04 37.69 141.04 37.87C141.04 37.9833 141.068 38.0883 141.125 38.185C141.185 38.285 141.275 38.37 141.395 38.44C141.515 38.5133 141.665 38.57 141.845 38.61C142.028 38.6533 142.243 38.675 142.49 38.675C142.73 38.675 142.945 38.6533 143.135 38.61C143.325 38.5667 143.485 38.505 143.615 38.425C143.748 38.345 143.85 38.25 143.92 38.14C143.99 38.03 144.025 37.9083 144.025 37.775ZM142.445 35.025C142.625 35.025 142.783 35 142.92 34.95C143.06 34.9 143.176 34.83 143.27 34.74C143.363 34.65 143.433 34.5433 143.48 34.42C143.526 34.2933 143.55 34.155 143.55 34.005C143.55 33.695 143.455 33.4483 143.265 33.265C143.078 33.0817 142.805 32.99 142.445 32.99C142.088 32.99 141.815 33.0817 141.625 33.265C141.438 33.4483 141.345 33.695 141.345 34.005C141.345 34.155 141.368 34.2933 141.415 34.42C141.465 34.5433 141.536 34.65 141.63 34.74C141.723 34.83 141.838 34.9 141.975 34.95C142.111 35 142.268 35.025 142.445 35.025Z" fill="#1D2433" fill-opacity="0.8"/>
<defs>
<linearGradient id="paint0_linear_228_3968" x1="21.0007" y1="39.8689" x2="21.0007" y2="3.12999" gradientUnits="userSpaceOnUse">
<stop stop-color="#1A85F8"/>
<stop offset="1" stop-color="#3EDC81"/>
</linearGradient>
<linearGradient id="paint1_linear_228_3968" x1="17.5636" y1="16.4182" x2="19.4734" y2="14.8918" gradientUnits="userSpaceOnUse">
<stop stop-color="#01052D"/>
<stop offset="1" stop-color="#01052D" stop-opacity="0"/>
</linearGradient>
<linearGradient id="paint2_linear_228_3968" x1="15.2727" y1="19.8546" x2="15.5894" y2="17.5034" gradientUnits="userSpaceOnUse">
<stop stop-color="#01052D"/>
<stop offset="1" stop-color="#01052D" stop-opacity="0"/>
</linearGradient>
<linearGradient id="paint3_linear_228_3968" x1="22.1456" y1="15.2727" x2="24.0633" y2="16.0139" gradientUnits="userSpaceOnUse">
<stop stop-color="#01052D"/>
<stop offset="1" stop-color="#01052D" stop-opacity="0"/>
</linearGradient>
<linearGradient id="paint4_linear_228_3968" x1="25.9636" y1="17.5636" x2="27.2386" y2="19.78" gradientUnits="userSpaceOnUse">
<stop stop-color="#01052D"/>
<stop offset="1" stop-color="#01052D" stop-opacity="0"/>
</linearGradient>
<linearGradient id="paint5_linear_228_3968" x1="26.7273" y1="22.1454" x2="26.1227" y2="24.4776" gradientUnits="userSpaceOnUse">
<stop stop-color="#01052D"/>
<stop offset="1" stop-color="#01052D" stop-opacity="0"/>
</linearGradient>
<linearGradient id="paint6_linear_228_3968" x1="24.4362" y1="25.5818" x2="22.3082" y2="26.9759" gradientUnits="userSpaceOnUse">
<stop stop-color="#01052D"/>
<stop offset="1" stop-color="#01052D" stop-opacity="0"/>
</linearGradient>
<linearGradient id="paint7_linear_228_3968" x1="19.8546" y1="26.7272" x2="17.8299" y2="25.8479" gradientUnits="userSpaceOnUse">
<stop stop-color="#01052D"/>
<stop offset="1" stop-color="#01052D" stop-opacity="0"/>
</linearGradient>
<linearGradient id="paint8_linear_228_3968" x1="16.4182" y1="24.4364" x2="14.9056" y2="22.421" gradientUnits="userSpaceOnUse">
<stop stop-color="#01052D"/>
<stop offset="1" stop-color="#01052D" stop-opacity="0"/>
</linearGradient>
<linearGradient id="paint9_linear_228_3968" x1="19.004" y1="-0.00494385" x2="19.004" y2="14.2792" gradientUnits="userSpaceOnUse">
<stop stop-color="#01052D" stop-opacity="0"/>
<stop offset="1" stop-color="#01052D"/>
</linearGradient>
<linearGradient id="paint10_linear_228_3968" x1="25.5817" y1="14.8909" x2="35.1271" y2="6.87274" gradientUnits="userSpaceOnUse">
<stop stop-color="#01052D"/>
<stop offset="1" stop-color="#01052D" stop-opacity="0"/>
</linearGradient>
<linearGradient id="paint11_linear_228_3968" x1="28.6363" y1="19.8546" x2="41.9999" y2="20.6182" gradientUnits="userSpaceOnUse">
<stop stop-color="#01052D"/>
<stop offset="1" stop-color="#01052D" stop-opacity="0"/>
</linearGradient>
<linearGradient id="paint12_linear_228_3968" x1="26.7274" y1="25.5818" x2="36.2728" y2="35.5091" gradientUnits="userSpaceOnUse">
<stop stop-color="#01052D"/>
<stop offset="1" stop-color="#01052D" stop-opacity="0"/>
</linearGradient>
<linearGradient id="paint13_linear_228_3968" x1="23.0033" y1="27.7208" x2="21.3817" y2="41.6182" gradientUnits="userSpaceOnUse">
<stop stop-color="#01052D"/>
<stop offset="1" stop-color="#01052D" stop-opacity="0"/>
</linearGradient>
<linearGradient id="paint14_linear_228_3968" x1="16.4183" y1="26.7273" x2="6.10916" y2="35.8909" gradientUnits="userSpaceOnUse">
<stop stop-color="#01052D"/>
<stop offset="1" stop-color="#01052D" stop-opacity="0"/>
</linearGradient>
<linearGradient id="paint15_linear_228_3968" x1="13.3636" y1="21.7636" x2="1.24784e-07" y2="21" gradientUnits="userSpaceOnUse">
<stop stop-color="#01052D"/>
<stop offset="1" stop-color="#01052D" stop-opacity="0"/>
</linearGradient>
<linearGradient id="paint16_linear_228_3968" x1="15.2728" y1="16.0364" x2="6.10917" y2="6.49092" gradientUnits="userSpaceOnUse">
<stop stop-color="#01052D"/>
<stop offset="1" stop-color="#01052D" stop-opacity="0"/>
</linearGradient>
<clipPath id="clip0_228_3968">
<rect width="42" height="42" fill="white"/>
</clipPath>
</defs>
</svg>
